<svg xmlns="http://www.w3.org/2000/svg" width="100" height="100" viewBox="0 0 100 100">
  <path fill="#FFF" d="M86,32 L86,68 L14,68 L14,32 L86,32 Z M84,34 L16,34 L16,66 L84,66 L84,34 Z M27.8,37.7 C28.5,37.7 29.2,37.9 29.8,38.1 C32.3,39.2 33.4,42.2 32.3,44.7 C31.5,46.6 29.6,47.7 27.7,47.7 C27.1,47.7 26.4,47.6 25.7,47.3 C23.2,46.2 22.1,43.2 23.2,40.7 C24,38.8 25.9,37.7 27.8,37.7 Z M27.8,38.7 C26.2,38.7 24.8,39.6 24.1,41.1 C23.2,43.1 24.1,45.5 26.1,46.4 C26.6,46.6 27.1,46.7 27.7,46.7 C29.3,46.7 30.8,45.7 31.4,44.3 C31.9,43.3 31.9,42.2 31.5,41.2 C31.1,40.2 30.4,39.4 29.4,39 C28.9,38.8 28.4,38.7 27.8,38.7 Z M39.5882691,46.7326483 L49.1130931,54.2522462 L62.1075178,50.7804533 L81.3429834,56.5208802 L81.0570166,57.4791198 L62.0924822,51.8195467 L48.8869069,55.3477538 L39.4117309,47.8673517 L19.0021285,55.5403191 L18.6502265,54.6042823 L39.5882691,46.7326483 Z M81.7,35.5 L81.6,35.5 L81.6,64.5 L18.3,64.5 L18.3,35.5 L81.7,35.5 Z M80.7,36.5 L19.3,36.5 L19.3,63.5 L80.7,63.5 L80.7,36.5 Z"/>
</svg>
