<svg xmlns="http://www.w3.org/2000/svg" width="100" height="100" viewBox="0 0 100 100">
  <path fill="#FFF" d="M82.2,40 L82.2,79 L67.2,79 L67.2,40 L82.2,40 Z M68.2,78 L81.2,78 L81.2,41 L68.2,41 L68.2,78 Z M66.1,40 L66.1,79 L51.1,79 L51.1,40 L66.1,40 Z M52.1,78 L65.1,78 L65.1,41 L52.1,41 L52.1,78 Z M49.9,40 L49.9,79 L34.9,79 L34.9,40 L49.9,40 Z M35.9,41 L35.9,78 L48.9,78 L48.9,41 L35.9,41 Z M33.8,40 L33.8,79 L18.8,79 L18.8,40 L33.8,40 Z M19.8,41 L19.8,78 L32.8,78 L32.8,41 L19.8,41 Z M87,31 L14,31 L14,33 L87,33 L87,31 Z M85,17 L85,84 L16,84 L16,17 L85,17 L85,17 Z M87,15 L14,15 L14,86 L87,86 L87,15 L87,15 Z M37,25 L37,23 L78,23 L78,25 L37,25 Z M24,25 L24,23 L31,23 L31,25 L24,25 Z"/>
</svg>
