<svg xmlns="http://www.w3.org/2000/svg" width="100" height="100" viewBox="0 0 100 100">
  <path fill="#FFF" d="M38.8,40.8 C38.8,39.2 38.7,37.5 38.5,35.6 C40.8,35.7 44.6,35.7 50,35.7 C55.4,35.7 59.2,35.7 61.4,35.6 C61.2,37.5 61.1,39.3 61.1,40.8 C61.1,42.2 61.1,43.3 61.2,44.1 L60.3,44.1 C60.1,42 59.8,40.4 59.5,39.4 C59.2,38.4 58.6,37.6 57.8,37.2 C57,36.7 55.7,36.5 54.1,36.5 L51.9,36.5 L51.9,59.7 C51.9,60.8 52,61.7 52.2,62.2 C52.4,62.7 52.8,63.1 53.4,63.3 C54,63.5 54.8,63.6 56,63.7 L56,64.5 C54.6,64.4 52.6,64.4 50,64.4 C47.3,64.4 45.3,64.4 44,64.5 L44,63.7 C45.2,63.7 46.1,63.5 46.6,63.3 C47.2,63.1 47.5,62.7 47.8,62.2 C48,61.7 48.1,60.9 48.1,59.7 L48.1,36.5 L45.9,36.5 C44.2,36.5 43,36.7 42.2,37.2 C41.4,37.7 40.8,38.4 40.5,39.4 C40.2,40.4 39.9,42 39.7,44.1 L38.8,44.1 C38.8,43.3 38.8,42.2 38.8,40.8 Z M63.5,23 L63.5,31.4 L72.4,31.4 L72.4,33.4 L61.5,33.4 L61.5,23 L63.5,23 Z M63.8991213,22 L74.4,31.9705313 L74.4,78 L25.6,78 L25.6,22 L63.8991213,22 Z M63.1008787,24 L27.6,24 L27.6,76 L72.4,76 L72.4,32.8294687 L63.1008787,24 Z"/>
</svg>
