<svg xmlns="http://www.w3.org/2000/svg" width="100" height="100" viewBox="0 0 100 100">
  <path fill="#FFF" d="M63.85,20 L74.35,31.8 L74.35,79.5 L25.65,79.5 L25.65,20 L63.85,20 L63.85,20 Z M64.75,18 L23.65,18 L23.65,81.4 L76.35,81.4 L76.35,31 L64.75,18 L64.75,18 Z M70.75,75.9 L29.15,75.9 L29.15,23.5 L63.85,23.5 L63.85,22.5 L28.15,22.5 L28.15,76.9 L71.75,76.9 L71.75,30.7 L70.75,30.7 L70.75,75.9 Z M65.25,19.3735283 L63.25,19.3735283 L63.25,31 L74.0409402,31 L74.0409402,29 L65.25,29 L65.25,19.3735283 Z M39.25,29 C37.35,29 35.55,30.1 34.65,32 C33.55,34.5 34.65,37.5 37.15,38.6 C37.85,38.9 38.55,39 39.15,39 C41.05,39 42.85,37.9 43.75,36 C44.85,33.5 43.75,30.5 41.25,29.4 C40.65,29.1 39.95,29 39.25,29 L39.25,29 Z M39.25,30 C39.85,30 40.35,30.1 40.85,30.3 C41.85,30.7 42.55,31.5 42.95,32.5 C43.35,33.5 43.35,34.6 42.85,35.6 C42.25,37 40.75,38 39.15,38 C38.55,38 38.05,37.9 37.55,37.7 C35.55,36.8 34.65,34.4 35.55,32.4 C36.25,30.9 37.75,30 39.25,30 Z M70.9478522,62.6359869 L70.9205166,63.9777073 L59.65,53.7 L48.45,61 L40.65,46.3 L28.75,60.2109713 L28.75,58.5 L40.75,44.5 L48.75,59.5 L59.75,52.5 L70.9478522,62.6359869 Z"/>
</svg>
