<svg xmlns="http://www.w3.org/2000/svg" width="100" height="100" viewBox="0 0 100 100">
  <path fill="#FFF" d="M46.629601,61.6851178 L46.629601,34.36 L16.3737374,34.36 L16.3737374,58.1295698 L23.8181881,48.8040935 L30.7098655,60.0075245 L38.9520095,54.8543739 L46.629601,61.6851178 Z M46.629601,63.5136154 L38.806792,56.5536716 L30.2628248,61.8955281 L23.671799,51.1808504 L16.3737374,60.3229489 L16.3737374,65.1949102 L46.629601,65.1949102 L46.629601,63.5136154 Z M15,33 L48.0033384,33 L48.0033384,66.5549102 L15,66.5549102 L15,33 Z M23.3795232,45.24 C21.2892432,45.24 19.5947365,43.5793834 19.5947365,41.5309091 C19.5947365,39.4824347 21.2892432,37.8218182 23.3795232,37.8218182 C25.4698031,37.8218182 27.1643098,39.4824347 27.1643098,41.5309091 C27.1643098,43.5793834 25.4698031,45.24 23.3795232,45.24 Z M23.3795232,43.88 C24.7142133,43.88 25.7905724,42.8251681 25.7905724,41.5309091 C25.7905724,40.2366501 24.7142133,39.1818182 23.3795232,39.1818182 C22.044833,39.1818182 20.9684739,40.2366501 20.9684739,41.5309091 C20.9684739,42.8251681 22.044833,43.88 23.3795232,43.88 Z M50.8598227,38.5 L50.8598227,37.5 L74.1669281,37.5 L74.1669281,38.5 L50.8598227,38.5 Z M50.8598227,42.5 L50.8598227,41.5 L84.393388,41.5 L84.393388,42.5 L50.8598227,42.5 Z M50.8598227,46.5 L50.8598227,45.5 L84.393388,45.5 L84.393388,46.5 L50.8598227,46.5 Z M50.8598227,50.5 L50.8598227,49.5 L78.3643678,49.5 L78.3643678,50.5 L50.8598227,50.5 Z M50.8598227,54.5 L50.8598227,53.5 L82.3598227,53.5 L82.3598227,54.5 L50.8598227,54.5 Z"/>
</svg>
