<svg xmlns="http://www.w3.org/2000/svg" width="20" height="20" viewBox="0 0 20 20">
  <path fill="#F90" d="M10.0571429,2.22857143 C9.48571431,2.02857143 7.6,1.48571429 7.6,0.0571428571 C7.6,0.0571428571 5.88571429,1.14285714 7.71428569,3 C8,3.31428571 12.1142857,7.4 5.94285714,10.2857143 C7.68571431,5.85714286 4.45714286,2.71428571 4.45714286,2.71428571 L2,0.0571428571 L2,19.0571429 L0.0857142856,19.0571429 L0.0857142856,19.8857143 L7.71428569,19.8857143 L7.71428569,19.0571429 L5.82857143,19.0571429 L5.82857143,12.1428571 C6.57142856,12.1142857 7.28571431,12.1142857 7.74285712,12.1142857 C11.4571429,12.1142857 13.7714286,10.0857143 13.7714286,7.11428569 C13.7714286,4.94285714 12.4571429,3.14285714 10.0571429,2.22857143 Z" transform="translate(3)"/>
</svg>
