<?xml version="1.0" encoding="utf-8"?>
<!-- Generator: Adobe Illustrator 22.0.0, SVG Export Plug-In . SVG Version: 6.00 Build 0)  -->
<svg version="1.1" id="Calque_1" xmlns="http://www.w3.org/2000/svg" xmlns:xlink="http://www.w3.org/1999/xlink" x="0px" y="0px"
	 viewBox="0 0 500 500" style="enable-background:new 0 0 500 500;" xml:space="preserve">
<style type="text/css">
	.st0{fill:#FFA13B;}
	.st1{clip-path:url(#SVGID_2_);}
	.st2{enable-background:new    ;}
</style>
<g>
	<path class="st0" d="M-230.9,204.3c0,3.5-0.7,6.6-2,9.4c-3.8,8.1-12.7,13.2-25.4,13.2c-1.7,0-4.2,0.1-6.9,0.1l0,0
		c-1.4,0.1-2.8,0.1-4.2,0.1l0,0c-2,0.1-3.9,0.1-5.4,0.1c-0.2,0-0.5,0-0.7,0l-5.2,17.9c-3.7,12.9,2.3,13.4,8.1,13.4l-0.5,1.6h-32.7
		l0.5-1.6c5.1,0,8.5-4.3,11.1-13.3l7.3-25l0,0l-0.2-19.8c0.6,1,1.2,1.8,2,2.3c0.2,0.1,0.4,0.2,0.5,0.2c0.2-0.1,0.4-0.5,0.4-0.7
		c0.4-2-0.6-3.7-0.8-5.6c-0.3-2-0.3-4.1-0.2-6.1c0.1-2.6,0.7-5.1,1.6-7.3l0,0l0,0l0.1-0.3l0,0c0.9-2.1,2.2-4,3.6-5.7
		c1-1.3,2.2-2.4,3.4-3.3c0.6-0.5,1.2-0.8,1.8-1.1c0.2-0.2,0.9-0.4,1.1-0.7l0,0c-0.7,1.5-0.9,3.2-0.9,4.9c0,2,0.4,4,1.1,5.8v0.1
		c0.3,1,0.8,1.9,1.2,2.7c0,0.1,0.1,0.2,0.2,0.3c1.2,2.1,2.7,3.9,4.3,5.6c0.7,0.7,1.4,1.4,2,2.1c0.8,0.9,1.5,1.8,2.1,3
		c2.6,5.1,3.3,12.4,0.8,17.8c-1,2.2-2.3,4.1-3.8,5.6c9.1-4.2,13.4-8.7,14.9-13.1l0,0c0.9-3.2,0.4-6.7-0.8-10.1
		c-2.6-7.5-8.3-14-8.3-14c-4.5-6.9,1.7-10.9,1.7-10.9c0,6.5,8.6,8.8,11.2,9.8c1.6,0.6,3,1.3,4.4,2
		C-235.4,188.4-230.9,195.5-230.9,204.3z"/>
	<path class="st0" d="M-277.4,172.1C-277.4,172-277.4,172-277.4,172.1C-277.4,172-277.4,172-277.4,172.1L-277.4,172.1L-277.4,172.1
		L-277.4,172.1z"/>
</g>
<g>
	<g>
		<g>
			<defs>
				<rect id="SVGID_1_" x="99.3" y="215.2" width="47.9" height="69.5"/>
			</defs>
			<clipPath id="SVGID_2_">
				<use xlink:href="#SVGID_1_"  style="overflow:visible;"/>
			</clipPath>
			<path class="st1" d="M134.2,222.8c-2-0.7-8.6-2.6-8.6-7.6c0,0-6,3.8,0.4,10.3c1,1.1,15.4,15.4-6.2,25.5
				c6.1-15.5-5.2-26.5-5.2-26.5l-8.5-9.3l-0.1,39.6l-0.1,6.7v20.2h-6.6v2.9H126v-2.9h-6.6v-24.2c2.6-0.1,5.1-0.1,6.7-0.1
				c13,0,21.1-7.1,21.1-17.5C147.2,232.3,142.6,226,134.2,222.8z"/>
		</g>
	</g>
	<g class="st2">
		<path d="M169.7,254h-8.1v10.3h-1.2v-23h9.2c4.2,0,6.8,2.5,6.8,6.4C176.4,251.3,173.7,254,169.7,254z M169.6,242.4h-8v10.3h8.1
			c2.8,0,5.5-1.6,5.5-5.2C175.2,244.3,173.1,242.4,169.6,242.4z"/>
		<path d="M203,264.2h-1.3c-0.3-0.6-0.5-1.4-0.5-2.5v-3.4c0-3.7-2.7-4.5-4.9-4.5h-8.5v10.3h-1.2v-23h9.7c4.3,0,6.9,2.5,6.9,6.4
			c0,2.8-1.5,4.8-3.9,5.8c2,0.8,3.2,2.5,3.2,5v3.1C202.5,262.3,202.7,263.6,203,264.2z M201.9,247.5c0-3.3-2-5.1-5.6-5.1h-8.5v10.3
			h8.6C199.2,252.7,201.9,251.1,201.9,247.5z"/>
		<path d="M235,252.6c0,6.6-5.1,12-11.4,12c-6.3,0-11.4-5.4-11.4-12c0-6.6,5.1-12,11.4-12C230,240.6,235,245.8,235,252.6z
			 M233.7,252.6c0-6-4.5-10.8-10.1-10.8c-5.6,0-10.2,4.8-10.2,10.8c0,6,4.5,10.8,10.2,10.8C229.2,263.4,233.7,258.5,233.7,252.6z"/>
		<path d="M267,264.2h-1.3v-20.2l-8.8,20.2h-1.4l-8.9-20.2v20.2h-1.2v-23h1.3l9.5,21.6l9.5-21.6h1.3V264.2z"/>
		<path d="M280.3,251.5h12.6v1.2h-12.6V263h14v1.2H279v-23h15.3v1.2h-14V251.5z M287,238.8h-1.4l2.8-3.4h1.6L287,238.8z"/>
		<path d="M311.6,242.4v21.8h-1.2v-21.8h-7.7v-1.2h16.7v1.2H311.6z"/>
		<path d="M346.9,264.2h-1.2v-11.5h-15.5v11.5h-1.2v-23h1.2v10.3h15.5v-10.3h1.2V264.2z"/>
		<path d="M360.2,251.5h12.6v1.2h-12.6V263h14v1.2H359v-23h15.3v1.2h-14V251.5z M367,238.8h-1.4l2.8-3.4h1.6L367,238.8z"/>
		<path d="M386.7,251.5h12.6v1.2h-12.6V263h14v1.2h-15.3v-23h15.3v1.2h-14V251.5z"/>
	</g>
</g>
</svg>
