<?xml version="1.0" encoding="utf-8"?>
<!-- Generator: Adobe Illustrator 22.0.0, SVG Export Plug-In . SVG Version: 6.00 Build 0)  -->
<svg version="1.1" id="Calque_1" xmlns="http://www.w3.org/2000/svg" xmlns:xlink="http://www.w3.org/1999/xlink" x="0px" y="0px"
	 viewBox="0 0 500 500" style="enable-background:new 0 0 500 500;" xml:space="preserve">
<style type="text/css">
	.st0{clip-path:url(#SVGID_2_);}
	.st1{fill:none;}
	.st2{enable-background:new    ;}
</style>
<g>
	<g>
		<g>
			<defs>
				<rect id="SVGID_1_" x="220" y="166.7" width="60" height="87"/>
			</defs>
			<clipPath id="SVGID_2_">
				<use xlink:href="#SVGID_1_"  style="overflow:visible;"/>
			</clipPath>
			<path class="st0" d="M263.6,176.1c-2.5-1-10.8-3.2-10.8-9.5c0,0-7.5,4.8,0.4,12.9c1.3,1.4,19.3,19.2-7.8,31.9
				c7.6-19.3-6.5-33.2-6.5-33.2l-10.6-11.6v49.6l-0.2,8.4v25.3H220v3.7h33.5V250h-8.2v-30.3c3.2-0.1,6.4-0.2,8.4-0.2
				c16.3,0,26.3-8.8,26.3-21.8C280,187.9,274.1,180.1,263.6,176.1z"/>
		</g>
	</g>
	<rect x="71.7" y="287.9" class="st1" width="356.6" height="45.4"/>
	<g class="st2">
		<path d="M99.6,307.5h-11v13.9H87v-31.3h12.5c5.7,0,9.3,3.3,9.3,8.7C108.8,303.9,105,307.5,99.6,307.5z M99.5,291.8H88.6v14h11
			c3.7,0,7.5-2.2,7.5-7C107.1,294.4,104.3,291.8,99.5,291.8z"/>
		<path d="M144.8,321.4h-1.7c-0.4-0.9-0.6-1.9-0.6-3.4v-4.6c0-5-3.6-6-6.6-6h-11.6v14h-1.7v-31.3h13.2c5.8,0,9.3,3.3,9.3,8.7
			c0,3.7-2,6.6-5.2,7.8c2.8,1,4.3,3.4,4.3,6.9v4.1C144.2,318.8,144.5,320.5,144.8,321.4z M143.4,298.8c0-4.4-2.8-7-7.6-7h-11.5v14
			H136C139.7,305.8,143.4,303.6,143.4,298.8z"/>
		<path d="M188.3,305.6c0,9-6.9,16.3-15.5,16.3s-15.5-7.3-15.5-16.3c0-9,6.9-16.3,15.5-16.3C181.6,289.4,188.3,296.5,188.3,305.6z
			 M186.6,305.6c0-8.2-6-14.6-13.8-14.6c-7.6,0-13.8,6.6-13.8,14.6c0,8.1,6.2,14.7,13.8,14.7C180.5,320.3,186.6,313.7,186.6,305.6z"
			/>
		<path d="M231.7,321.4H230V294l-12,27.4h-1.8l-12-27.4v27.4h-1.7v-31.3h1.8l12.9,29.3l12.9-29.3h1.8V321.4z"/>
		<path d="M249.8,304.2h17.1v1.6h-17.1v13.9h19.1v1.7h-20.7v-31.3h20.7v1.7h-19.1V304.2z M259,286.9h-1.8l3.8-4.6h2.1L259,286.9z"/>
		<path d="M292.3,291.8v29.6h-1.7v-29.6h-10.5v-1.7h22.7v1.7H292.3z"/>
		<path d="M340.2,321.4h-1.7v-15.6h-21v15.6h-1.7v-31.3h1.7v14h21v-14h1.7V321.4z"/>
		<path d="M358.4,304.2h17.1v1.6h-17.1v13.9h19.1v1.7h-20.7v-31.3h20.7v1.7h-19.1V304.2z M367.6,286.9h-1.8l3.8-4.6h2.1L367.6,286.9
			z"/>
		<path d="M394.3,304.2h17.1v1.6h-17.1v13.9h19.1v1.7h-20.7v-31.3h20.7v1.7h-19.1V304.2z"/>
	</g>
</g>
</svg>
