<?xml version="1.0" encoding="utf-8"?>
<!-- Generator: Adobe Illustrator 22.0.1, SVG Export Plug-In . SVG Version: 6.00 Build 0)  -->
<!DOCTYPE svg PUBLIC "-//W3C//DTD SVG 1.1//EN" "http://www.w3.org/Graphics/SVG/1.1/DTD/svg11.dtd">
<svg version="1.1" id="Calque_1" xmlns="http://www.w3.org/2000/svg" xmlns:xlink="http://www.w3.org/1999/xlink" x="0px" y="0px"
	 viewBox="0 0 390 116" style="enable-background:new 0 0 390 116;" xml:space="preserve">
<style type="text/css">
	.st0{fill:#FF9900;}
	.st1{enable-background:new    ;}
</style>
<g>
	<g>
		<g>
			<g>
				<g>
					<path class="st0" d="M79.2,28.8c-2-0.7-8.6-2.6-8.6-7.6c0,0-6,3.8,0.4,10.3c1,1.1,15.4,15.4-6.2,25.5
						c6.1-15.5-5.2-26.5-5.2-26.5L51,21.2v66.5h-6.7v2.9H71v-2.9h-6.6V63.5c2.6-0.1,5.1-0.1,6.7-0.1c13,0,21.1-7.1,21.1-17.5
						C92.2,38.3,87.6,32,79.2,28.8z"/>
				</g>
			</g>
		</g>
	</g>
	<g class="st1">
		<path d="M114.7,60h-8.1v10.3h-1.2v-23h9.2c4.2,0,6.8,2.5,6.8,6.4C121.4,57.3,118.7,60,114.7,60z M114.6,48.4h-8v10.3h8.1
			c2.8,0,5.5-1.6,5.5-5.2C120.2,50.3,118.1,48.4,114.6,48.4z"/>
		<path d="M148,70.2h-1.3c-0.3-0.6-0.5-1.4-0.5-2.5v-3.4c0-3.7-2.7-4.5-4.9-4.5h-8.5v10.3h-1.2v-23h9.7c4.3,0,6.9,2.5,6.9,6.4
			c0,2.8-1.5,4.8-3.9,5.8c2,0.8,3.2,2.5,3.2,5v3.1C147.5,68.3,147.7,69.6,148,70.2z M146.9,53.5c0-3.3-2-5.1-5.6-5.1h-8.5v10.3h8.6
			C144.2,58.7,146.9,57.1,146.9,53.5z"/>
		<path d="M180,58.6c0,6.6-5.1,12-11.4,12c-6.3,0-11.4-5.4-11.4-12s5.1-12,11.4-12C175,46.6,180,51.8,180,58.6z M178.7,58.6
			c0-6-4.5-10.8-10.1-10.8s-10.2,4.8-10.2,10.8s4.5,10.8,10.2,10.8C174.2,69.4,178.7,64.5,178.7,58.6z"/>
		<path d="M212,70.2h-1.3V50l-8.8,20.2h-1.4L191.6,50v20.2h-1.2v-23h1.3l9.5,21.6l9.5-21.6h1.3L212,70.2L212,70.2z"/>
		<path d="M225.3,57.5h12.6v1.2h-12.6V69h14v1.2H224v-23h15.3v1.2h-14V57.5z M232,44.8h-1.4l2.8-3.4h1.6L232,44.8z"/>
		<path d="M256.6,48.4v21.8h-1.2V48.4h-7.7v-1.2h16.7v1.2H256.6L256.6,48.4z"/>
		<path d="M291.9,70.2h-1.2V58.7h-15.5v11.5H274v-23h1.2v10.3h15.5V47.2h1.2L291.9,70.2L291.9,70.2z"/>
		<path d="M305.2,57.5h12.6v1.2h-12.6V69h14v1.2H304v-23h15.3v1.2h-14L305.2,57.5L305.2,57.5z M312,44.8h-1.4l2.8-3.4h1.6L312,44.8z
			"/>
		<path d="M331.7,57.5h12.6v1.2h-12.6V69h14v1.2h-15.3v-23h15.3v1.2h-14V57.5z"/>
	</g>
</g>
</svg>
