<svg id="svg3366" xmlns:rdf="http://www.w3.org/1999/02/22-rdf-syntax-ns#" xmlns="http://www.w3.org/2000/svg" height="100" width="100" version="1.1" xmlns:cc="http://creativecommons.org/ns#" xmlns:dc="http://purl.org/dc/elements/1.1/" viewBox="0 0 100 100">
 <g id="layer1" transform="translate(0 -952.36)">
  <g id="layer1-3" transform="matrix(2 0 0 2 -470 -33.802)">
   <g id="g3349" fill="#fff" transform="translate(116,238.18)">
    <path id="path3337" d="m144 265.8c-7.8 0-14.1 6.3-14.1 14.1s6.3 14.1 14.1 14.1 14.1-6.3 14.1-14.1-6.3-14.1-14.1-14.1zm0 26.8c-7 0-12.7-5.7-12.7-12.7s5.7-12.7 12.7-12.7 12.7 5.7 12.7 12.7-5.7 12.7-12.7 12.7z"/>
    <path id="path3339" d="m144 284.5c-0.6 0-1.1 0.5-1.1 1.1s0.5 1.1 1.1 1.1 1.1-0.5 1.1-1.1-0.5-1.1-1.1-1.1z"/>
    <path id="path3341" d="m144 273.4c-2.1 0-3.8 1.7-3.8 3.8 0 0.4 0.3 0.7 0.7 0.7s0.7-0.3 0.7-0.7c0-1.3 1.1-2.4 2.4-2.4s2.4 1.1 2.4 2.4-1.1 2.4-2.4 2.4c-0.4 0-0.7 0.3-0.7 0.7v2.1c0 0.4 0.3 0.7 0.7 0.7s0.7-0.3 0.7-0.7v-1.5c1.8-0.3 3.1-1.9 3.1-3.7 0-2.1-1.7-3.8-3.8-3.8z"/>
   </g>
  </g>
 </g>
</svg>
