<svg xmlns="http://www.w3.org/2000/svg" width="100" height="100" viewBox="0 0 100 100">
  <path fill="#FFF" d="M73.8,23 L73.9,23 L73.9,77 L27,77 L27,23 L73.8,23 Z M71.8,25 L29,25 L29,75 L71.8,75 L71.8,25 Z M38.2,38.5 C37.0954305,38.5 36.2,37.6045695 36.2,36.5 C36.2,35.3954305 37.0954305,34.5 38.2,34.5 C39.3045695,34.5 40.2,35.3954305 40.2,36.5 C40.2,37.6045695 39.3045695,38.5 38.2,38.5 Z M43.7,37 L43.7,36 L64.7,36 L64.7,37 L43.7,37 Z M38.2,47.5 C37.0954305,47.5 36.2,46.6045695 36.2,45.5 C36.2,44.3954305 37.0954305,43.5 38.2,43.5 C39.3045695,43.5 40.2,44.3954305 40.2,45.5 C40.2,46.6045695 39.3045695,47.5 38.2,47.5 Z M43.7,46 L43.7,45 L64.7,45 L64.7,46 L43.7,46 Z M38.2,56.5 C37.0954305,56.5 36.2,55.6045695 36.2,54.5 C36.2,53.3954305 37.0954305,52.5 38.2,52.5 C39.3045695,52.5 40.2,53.3954305 40.2,54.5 C40.2,55.6045695 39.3045695,56.5 38.2,56.5 Z M43.7,55 L43.7,54 L64.7,54 L64.7,55 L43.7,55 Z M38.2,65.5 C37.0954305,65.5 36.2,64.6045695 36.2,63.5 C36.2,62.3954305 37.0954305,61.5 38.2,61.5 C39.3045695,61.5 40.2,62.3954305 40.2,63.5 C40.2,64.6045695 39.3045695,65.5 38.2,65.5 Z M43.7,64 L43.7,63 L64.7,63 L64.7,64 L43.7,64 Z"/>
</svg>
