<svg xmlns="http://www.w3.org/2000/svg" width="100" height="100" viewBox="0 0 100 100">
  <path fill="#FFF" d="M84.5,32 L84.5,69 L15.5,69 L15.5,32 L84.5,32 L84.5,32 Z M86.5,30 L13.5,30 L13.5,71 L86.5,71 L86.5,30 L86.5,30 Z M81.5,35 L81.5,50 L66.5,50 L66.5,35 L81.5,35 Z M67.5,49 L80.5,49 L80.5,36 L67.5,36 L67.5,49 Z M65.5,35 L65.5,50 L50.5,50 L50.5,35 L65.5,35 Z M51.5,49 L64.5,49 L64.5,36 L51.5,36 L51.5,49 Z M49.5,35 L49.5,50 L34.5,50 L34.5,35 L49.5,35 Z M35.5,36 L35.5,49 L48.5,49 L48.5,36 L35.5,36 Z M33.5,35 L33.5,50 L18.5,50 L18.5,35 L33.5,35 Z M19.5,36 L19.5,49 L32.5,49 L32.5,36 L19.5,36 Z M81.5,51 L81.5,66 L66.5,66 L66.5,51 L81.5,51 Z M67.5,65 L80.5,65 L80.5,52 L67.5,52 L67.5,65 Z M65.5,51 L65.5,66 L50.5,66 L50.5,51 L65.5,51 Z M51.5,65 L64.5,65 L64.5,52 L51.5,52 L51.5,65 Z M49.5,51 L49.5,66 L34.5,66 L34.5,51 L49.5,51 Z M35.5,52 L35.5,65 L48.5,65 L48.5,52 L35.5,52 Z M33.5,51 L33.5,66 L18.5,66 L18.5,51 L33.5,51 Z M19.5,52 L19.5,65 L32.5,65 L32.5,52 L19.5,52 Z"/>
</svg>
