<svg xmlns="http://www.w3.org/2000/svg" width="100" height="100" viewBox="0 0 100 100">
  <path fill="#FFF" d="M82,27.5 L82,72.5 L18.9,72.5 L18.9,27.5 L82,27.5 Z M19.9,28.5 L19.9,71.5 L81,71.5 L81,28.5 L19.9,28.5 Z M87,23 L87,77 L14,77 L14,23 L87,23 Z M85,25 L16,25 L16,75 L85,75 L85,25 Z M50.5,40.6 C45.3,40.6 41.1,44.8 41.1,50 C41.1,55.2 45.3,59.4 50.5,59.4 C55.7,59.4 59.9,55.2 59.9,50 C59.9,44.8 55.7,40.6 50.5,40.6 L50.5,40.6 Z M50.5,41.6 C55.1,41.6 58.9,45.4 58.9,50 C58.9,54.6 55.1,58.4 50.5,58.4 C45.9,58.4 42.1,54.6 42.1,50 C42.1,45.4 45.9,41.6 50.5,41.6 L50.5,41.6 Z M47.7,44.6 L47.7,55.4 L56.8,50 L47.7,44.6 Z"/>
</svg>
